<svg width="34" height="30" viewBox="0 0 34 30" fill="none" xmlns="http://www.w3.org/2000/svg">
<path d="M28.4567 3.28125H4.65655C4.08418 3.28125 3.62176 3.7002 3.62176 4.21875V25.7813C3.62176 26.2998 4.08418 26.7188 4.65655 26.7188H28.4567C29.029 26.7188 29.4915 26.2998 29.4915 25.7813V4.21875C29.4915 3.7002 29.029 3.28125 28.4567 3.28125ZM27.4219 24.8438H21.4686V17.6426H24.8317L25.3361 14.1064H21.4686V11.8477C21.4686 10.8223 21.7823 10.125 23.4024 10.125H25.4687V6.96094C25.1098 6.91699 23.8842 6.82031 22.4549 6.82031C19.4734 6.82031 17.4329 8.46973 17.4329 11.4961V14.1035H14.0634V17.6396H17.4362V24.8438H5.69133V5.15625H27.4219V24.8438Z" fill="black"/>
</svg>
