<svg width="100" height="100" viewBox="0 0 100 100" fill="none" xmlns="http://www.w3.org/2000/svg">
<path d="M35.6479 90.625H64.3979M26.8458 47.1812C20.7917 37.5083 25.1521 21.1958 34.3833 14.4917C38.8612 11.1696 44.289 9.37611 49.8646 9.37611C55.4402 9.37611 60.8679 11.1696 65.3458 14.4917C75.2062 22.0375 79.1208 37.2167 73.0667 46.8875L49.8646 83.9625L26.8458 47.1812Z" stroke="black" stroke-linecap="round" stroke-linejoin="round"/>
<path d="M50.025 48.9125C56.3889 48.9125 61.5479 43.7535 61.5479 37.3896C61.5479 31.0257 56.3889 25.8667 50.025 25.8667C43.6611 25.8667 38.5021 31.0257 38.5021 37.3896C38.5021 43.7535 43.6611 48.9125 50.025 48.9125Z" stroke="black" stroke-linecap="round" stroke-linejoin="round"/>
</svg>
