<svg width="30" height="30" viewBox="0 0 30 30" fill="none" xmlns="http://www.w3.org/2000/svg">
<path d="M22.4808 0.0328369H7.51928C3.39728 0.0328369 0.0437012 3.37514 0.0437012 7.48328V22.5166C0.0437012 26.6244 3.39728 29.9671 7.51928 29.9671H22.4808C26.6028 29.9671 29.9563 26.6244 29.9563 22.5166V7.48325C29.9563 3.37514 26.6028 0.0328669 22.4808 0.0328669V0.0328369ZM27.1876 22.5165C27.1876 25.1029 25.0762 27.2076 22.4808 27.2076H7.51931C4.92389 27.2076 2.81246 25.1029 2.81246 22.5165V12.8071H8.72684C8.29505 13.7204 8.0522 14.7392 8.0522 15.8136C8.0522 19.7161 11.2376 22.8905 15.1531 22.8905C19.0685 22.8905 22.2539 19.7161 22.2539 15.8136C22.2539 14.7392 22.0111 13.7203 21.5792 12.8071H27.1876V22.5165H27.1876ZM12.2053 15.8137C12.2053 14.194 13.5277 12.876 15.1531 12.876C16.7786 12.876 18.1009 14.194 18.1009 15.8137C18.1009 17.4337 16.7786 18.7515 15.1531 18.7515C13.5277 18.7514 12.2053 17.4337 12.2053 15.8137V15.8137ZM27.1876 10.0477H19.2624C18.1014 9.22367 16.6838 8.73686 15.1531 8.73686C13.6225 8.73686 12.2047 9.22367 11.0439 10.0477H2.81246V7.48328C2.81246 4.89659 4.92389 2.79227 7.51931 2.79227H22.4808C25.0762 2.79227 27.1876 4.89659 27.1876 7.48328V10.0477H27.1876H27.1876ZM24.1874 4.46582H21.6209C21.164 4.46582 20.7903 4.83836 20.7903 5.29364V7.85162C20.7903 8.30687 21.1639 8.67944 21.6209 8.67944H24.1874C24.6444 8.67944 25.018 8.30687 25.018 7.85162V5.29364C25.018 4.83836 24.6444 4.46582 24.1874 4.46582Z" fill="black"/>
</svg>
