<svg width="100" height="100" viewBox="0 0 100 100" fill="none" xmlns="http://www.w3.org/2000/svg">
<path d="M69.0417 91.6667C70.1483 91.6731 71.2451 91.459 72.2681 91.0369C73.2911 90.6148 74.2198 89.9932 75 89.2083L86.2916 77.9167C87.0677 77.136 87.5033 76.0799 87.5033 74.9792C87.5033 73.8784 87.0677 72.8224 86.2916 72.0417L69.625 55.375C68.8443 54.599 67.7883 54.1634 66.6875 54.1634C65.5867 54.1634 64.5307 54.599 63.75 55.375L57.0833 62C52.4677 60.7694 48.193 58.5037 44.5833 55.375C41.463 51.7596 39.1985 47.4869 37.9583 42.875L44.5833 36.2083C45.3594 35.4277 45.795 34.3716 45.795 33.2708C45.795 32.1701 45.3594 31.114 44.5833 30.3333L27.9167 13.6667C27.136 12.8906 26.0799 12.455 24.9792 12.455C23.8784 12.455 22.8223 12.8906 22.0417 13.6667L10.7917 25C10.0068 25.7802 9.38519 26.7089 8.96311 27.7319C8.54103 28.7549 8.32694 29.8517 8.33333 30.9583C8.71135 46.9679 15.1086 62.247 26.25 73.75C37.753 84.8914 53.0321 91.2887 69.0417 91.6667V91.6667ZM25 22.5417L35.7917 33.3333L30.4167 38.7083C29.9076 39.1852 29.5264 39.7822 29.308 40.4447C29.0896 41.1072 29.041 41.8139 29.1667 42.5C30.724 49.4599 34.0213 55.911 38.75 61.25C44.0848 65.9848 50.5376 69.2829 57.5 70.8333C58.1757 70.9746 58.876 70.9458 59.5378 70.7494C60.1996 70.553 60.8023 70.1953 61.2917 69.7083L66.6667 64.2083L77.4583 75L69.125 83.3333C55.3072 82.9776 42.1229 77.4631 32.1667 67.875C22.5538 57.9146 17.0234 44.713 16.6667 30.875L25 22.5417ZM83.3333 45.8333H91.6667C91.7747 40.8792 90.8786 35.9544 89.0323 31.3559C87.186 26.7573 84.4277 22.5802 80.9238 19.0762C77.4198 15.5723 73.2427 12.814 68.6441 10.9677C64.0456 9.12143 59.1208 8.2253 54.1667 8.33334V16.6667C58.0329 16.5329 61.8854 17.1959 65.4846 18.6143C69.0837 20.0327 72.3527 22.1763 75.0882 24.9118C77.8237 27.6473 79.9672 30.9163 81.3857 34.5154C82.8041 38.1146 83.4671 41.9671 83.3333 45.8333Z" fill="black"/>
<path d="M54.1667 33.3333C62.9167 33.3333 66.6667 37.0833 66.6667 45.8333H75C75 32.4167 67.5833 25 54.1667 25V33.3333Z" fill="black"/>
</svg>
