<svg width="100" height="100" viewBox="0 0 100 100" fill="none" xmlns="http://www.w3.org/2000/svg">
<path d="M83.3333 12.5H16.6667C15.5616 12.5 14.5018 12.939 13.7204 13.7204C12.939 14.5018 12.5 15.5616 12.5 16.6667V83.3333C12.5 84.4384 12.939 85.4982 13.7204 86.2796C14.5018 87.061 15.5616 87.5 16.6667 87.5H52.5625V58.5H42.8208V47.1458H52.5625V38.8125C52.5625 29.125 58.4792 23.8458 67.1458 23.8458C70.0583 23.8375 72.975 23.9875 75.875 24.2917V34.375H69.8958C65.1958 34.375 64.2792 36.6167 64.2792 39.8958V47.125H75.5167L74.0583 58.4792H64.275V87.5H83.3333C84.4384 87.5 85.4982 87.061 86.2796 86.2796C87.061 85.4982 87.5 84.4384 87.5 83.3333V16.6667C87.5 15.5616 87.061 14.5018 86.2796 13.7204C85.4982 12.939 84.4384 12.5 83.3333 12.5V12.5Z" fill="black"/>
</svg>
