<svg width="32" height="32" viewBox="0 0 32 32" fill="none" xmlns="http://www.w3.org/2000/svg">
<path d="M28 30H22C21.4697 29.9995 20.9613 29.7886 20.5864 29.4136C20.2114 29.0387 20.0005 28.5303 20 28V22C20.0005 21.4697 20.2114 20.9613 20.5864 20.5864C20.9613 20.2114 21.4697 20.0005 22 20H28C28.5303 20.0005 29.0387 20.2114 29.4136 20.5864C29.7886 20.9613 29.9995 21.4697 30 22V28C29.9995 28.5303 29.7886 29.0387 29.4136 29.4136C29.0387 29.7886 28.5303 29.9995 28 30ZM22 22H21.999L22 28H28V22H22ZM18 26H12C11.2046 25.9992 10.442 25.6829 9.87956 25.1204C9.31713 24.558 9.0008 23.7954 9.00001 23V19H11V23C11.0003 23.2651 11.1057 23.5193 11.2932 23.7068C11.4807 23.8943 11.7349 23.9997 12 24H18V26ZM26 18H24V15C23.9997 14.7349 23.8943 14.4807 23.7068 14.2932C23.5193 14.1057 23.2651 14.0003 23 14H18V12H23C23.7954 12.0008 24.558 12.3171 25.1205 12.8796C25.6829 13.442 25.9992 14.2046 26 15V18ZM15 18C14.8257 18.0001 14.6543 17.9546 14.503 17.868L10 15.288L5.49701 17.868C5.32812 17.9647 5.13468 18.01 4.94041 17.9984C4.74614 17.9868 4.55949 17.9188 4.40332 17.8026C4.24716 17.6865 4.12828 17.5273 4.06126 17.3446C3.99424 17.1619 3.98199 16.9636 4.02601 16.774L5.08701 12.202L2.26901 9.182C2.14584 9.04984 2.06077 8.88679 2.02284 8.71017C1.98491 8.53354 1.99553 8.34994 2.05358 8.17887C2.11163 8.00779 2.21494 7.85564 2.35253 7.73858C2.49012 7.62151 2.65685 7.5439 2.83501 7.514L7.03501 6.812L9.10101 2.562C9.18227 2.39517 9.30836 2.25424 9.46516 2.15498C9.62195 2.05573 9.80327 2.00206 9.98883 1.99999C10.1744 1.99791 10.3569 2.04751 10.5158 2.14323C10.6748 2.23895 10.804 2.37703 10.889 2.542L13.093 6.812L17.17 7.514C17.3478 7.54463 17.5139 7.62277 17.6509 7.74014C17.7878 7.8575 17.8905 8.00973 17.948 8.18068C18.0055 8.35164 18.0157 8.53496 17.9775 8.71124C17.9393 8.88751 17.8541 9.05017 17.731 9.182L14.913 12.202L15.973 16.774C16.007 16.9205 16.0075 17.0729 15.9745 17.2196C15.9414 17.3664 15.8757 17.5038 15.7822 17.6216C15.6887 17.7395 15.5698 17.8347 15.4343 17.9002C15.2989 17.9657 15.1504 17.9998 15 18ZM10 13C10 13 10.343 13.18 10.497 13.269L13.507 14.993L12.723 11.616L15.005 9.171L11.772 8.614L10.027 5.232L8.38301 8.614L5.00201 9.179L7.27601 11.616L6.49201 14.993L9.50201 13.269C9.65801 13.18 10 13 10 13Z" fill="black"/>
</svg>
