<svg width="100" height="100" viewBox="0 0 100 100" fill="none" xmlns="http://www.w3.org/2000/svg">
<path d="M98.995 25.825L87.12 16.675C86.3131 16.157 85.4357 15.7579 84.515 15.49C83.598 15.1932 82.6434 15.0282 81.68 15H47.5L51.505 40H81.68C82.5 40 83.525 39.815 84.51 39.51C85.495 39.205 86.445 38.785 87.115 38.33L98.99 29.17C99.665 28.715 100 28.11 100 27.5C100 26.89 99.665 26.285 98.995 25.825V25.825ZM42.5 5H37.5C36.837 5 36.2011 5.26339 35.7322 5.73223C35.2634 6.20107 35 6.83696 35 7.5V25H18.32C17.49 25 16.47 25.185 15.485 25.495C14.495 25.795 13.55 26.21 12.88 26.675L1.005 35.825C0.33 36.28 0 36.89 0 37.5C0 38.105 0.33 38.71 1.005 39.175L12.88 48.335C13.55 48.79 14.495 49.21 15.485 49.51C16.47 49.815 17.49 50 18.32 50H35V92.5C35 93.163 35.2634 93.7989 35.7322 94.2678C36.2011 94.7366 36.837 95 37.5 95H42.5C43.163 95 43.7989 94.7366 44.2678 94.2678C44.7366 93.7989 45 93.163 45 92.5V7.5C45 6.83696 44.7366 6.20107 44.2678 5.73223C43.7989 5.26339 43.163 5 42.5 5V5Z" fill="black"/>
</svg>
