<svg width="100" height="100" viewBox="0 0 100 100" fill="none" xmlns="http://www.w3.org/2000/svg">
<rect width="100" height="100" fill="#39D7CD"/>
<path d="M83.3333 8.33334H16.6667C14.4565 8.33334 12.3369 9.21131 10.7741 10.7741C9.2113 12.3369 8.33333 14.4565 8.33333 16.6667V66.6667C8.33333 68.8768 9.2113 70.9964 10.7741 72.5592C12.3369 74.122 14.4565 75 16.6667 75H41.6667V83.3333H29.1667V91.6667H70.8333V83.3333H58.3333V75H83.3333C85.5435 75 87.6631 74.122 89.2259 72.5592C90.7887 70.9964 91.6667 68.8768 91.6667 66.6667V16.6667C91.6667 14.4565 90.7887 12.3369 89.2259 10.7741C87.6631 9.21131 85.5435 8.33334 83.3333 8.33334ZM83.3333 66.6667H16.6667V16.6667H83.3333V66.6667ZM69.7917 54.1667C69.7917 56.1005 69.0234 57.9552 67.656 59.3227C66.2885 60.6901 64.4339 61.4583 62.5 61.4583C60.5661 61.4583 58.7115 60.6901 57.344 59.3227C55.9766 57.9552 55.2083 56.1005 55.2083 54.1667L41.6667 47.3333C40.6121 48.1451 39.3513 48.6454 38.0271 48.7774C36.7028 48.9094 35.3681 48.6679 34.1741 48.0802C32.9801 47.4925 31.9745 46.5822 31.2713 45.4524C30.5681 44.3225 30.1954 43.0183 30.1954 41.6875C30.1954 40.3567 30.5681 39.0525 31.2713 37.9226C31.9745 36.7928 32.9801 35.8825 34.1741 35.2948C35.3681 34.7072 36.7028 34.4656 38.0271 34.5976C39.3513 34.7296 40.6121 35.2299 41.6667 36.0417L55.2083 29.1667C55.185 27.4948 55.7305 25.8646 56.7553 24.5435C57.7801 23.2223 59.2235 22.2886 60.8486 21.8955C62.4738 21.5024 64.1843 21.6732 65.6997 22.3799C67.215 23.0865 68.4453 24.2872 69.1886 25.7849C69.932 27.2826 70.1444 28.9884 69.791 30.6227C69.4375 32.2569 68.5393 33.7226 67.2435 34.7793C65.9477 35.836 64.3313 36.421 62.6593 36.4384C60.9874 36.4558 59.3592 35.9045 58.0417 34.875L44.625 41.6667L58.0417 48.375C59.1171 47.5234 60.412 46.9944 61.7761 46.8494C63.1402 46.7044 64.5174 46.9494 65.7478 47.5558C66.9782 48.1623 68.0113 49.1054 68.7271 50.2756C69.4429 51.4458 69.8121 52.7951 69.7917 54.1667V54.1667Z" fill="black"/>
</svg>
