<svg width="100" height="100" viewBox="0 0 100 100" fill="none" xmlns="http://www.w3.org/2000/svg">
<rect width="100" height="100" fill="#39D7CD"/>
<path d="M45.5371 70.334C45.2108 70.3353 44.8864 70.2845 44.5762 70.1836C44.0182 70.0031 43.5224 69.6693 43.1452 69.2203C42.768 68.7713 42.5248 68.2252 42.4433 67.6445C42.0234 64.7148 38.5469 61.3047 35.291 60.6426C34.7534 60.5314 34.2545 60.2805 33.8446 59.9152C33.4348 59.5499 33.1284 59.0831 32.9563 58.5618C32.7842 58.0404 32.7526 57.4829 32.8645 56.9454C32.9764 56.4079 33.2279 55.9094 33.5937 55.5L74.8223 9.58204C74.8594 9.53907 74.8984 9.49806 74.9375 9.45899C77.0086 7.39362 79.8143 6.2338 82.7392 6.2338C85.6642 6.2338 88.4698 7.39362 90.541 9.45899C92.6055 11.5249 93.767 14.3249 93.7711 17.2456C93.7751 20.1662 92.6213 22.9694 90.5625 25.041L47.789 69.377C47.4974 69.6798 47.1476 69.9206 46.7606 70.085C46.3737 70.2495 45.9575 70.3342 45.5371 70.334ZM23.416 93.7715C17.1387 93.7715 10.6328 90.4727 6.84373 85.373C6.49839 84.9081 6.28906 84.3563 6.23912 83.7792C6.18918 83.2022 6.30058 82.6226 6.5609 82.1052C6.82122 81.5878 7.22021 81.153 7.71333 80.8492C8.20645 80.5454 8.7743 80.3846 9.3535 80.3848C10.3965 80.3848 13.2597 79.4336 13.2597 76.3672C13.2597 68.7363 19.3926 62.5273 26.9316 62.5273C34.4707 62.5273 40.6035 68.7363 40.6035 76.3672C40.6035 85.9609 32.8926 93.7715 23.416 93.7715V93.7715Z" fill="black"/>
</svg>
