<svg width="100" height="100" viewBox="0 0 100 100" fill="none" xmlns="http://www.w3.org/2000/svg">
<rect width="100" height="100" fill="#39D7CD"/>
<path d="M50 6.25C25.832 6.25 6.25 25.832 6.25 50C6.25 74.168 25.832 93.75 50 93.75C74.168 93.75 93.75 74.168 93.75 50C93.75 25.832 74.168 6.25 50 6.25ZM33.3984 69.1191C33.13 69.577 32.7457 69.9562 32.2842 70.2185C31.8227 70.4808 31.3003 70.6169 30.7695 70.6133C30.2286 70.618 29.697 70.4719 29.2344 70.1914C28.8899 69.9918 28.5883 69.7262 28.3468 69.4097C28.1053 69.0932 27.9287 68.7322 27.8271 68.3473C27.7254 67.9624 27.7008 67.5612 27.7546 67.1668C27.8084 66.7724 27.9396 66.3924 28.1406 66.0488L31.127 61.084C31.2779 60.8277 31.4932 60.6154 31.7515 60.4681C32.0098 60.3207 32.3022 60.2435 32.5996 60.2441H33.041C35.207 60.2441 36.7227 61.5469 37.1641 62.8086L33.3984 69.1191ZM58.6816 59.3535L39.125 59.375H26.127C25.718 59.3767 25.313 59.2954 24.9364 59.1359C24.5598 58.9763 24.2196 58.742 23.9363 58.447C23.6531 58.1521 23.4327 57.8027 23.2885 57.4199C23.1443 57.0373 23.0794 56.6292 23.0977 56.2207C23.1602 54.5801 24.5918 53.3379 26.2227 53.3379H35.6445L46.8145 34.3242L43.1973 28.1621C42.3828 26.7578 42.7441 24.9062 44.1406 24.0234C44.4849 23.8008 44.8707 23.65 45.2747 23.5803C45.6787 23.5105 46.0927 23.5232 46.4917 23.6175C46.8907 23.7118 47.2665 23.8859 47.5965 24.1292C47.9266 24.3724 48.204 24.68 48.4121 25.0332L50.3457 28.3359H50.3672L52.3027 25.0332C52.5111 24.6818 52.7881 24.3759 53.1172 24.1339C53.4463 23.8918 53.8208 23.7185 54.2183 23.6243C54.6158 23.53 55.0283 23.5168 55.431 23.5854C55.8338 23.654 56.2186 23.8029 56.5625 24.0234C57.9512 24.9062 58.3086 26.7578 57.4883 28.168L53.8711 34.3301L50.3555 40.3242L42.7207 53.3438V53.3652H53.9727C55.3828 53.3652 57.1504 54.123 57.8652 55.3418L57.9277 55.4688C58.5586 56.541 58.916 57.2773 58.916 58.3496C58.9057 58.6978 58.8281 59.0407 58.6875 59.3594L58.6816 59.3535ZM73.8672 59.375H68.5723V59.3965L72.4434 65.9805C72.8597 66.6739 72.9871 67.503 72.7983 68.2895C72.6094 69.0759 72.1194 69.7568 71.4336 70.1855C70.9582 70.4754 70.4122 70.6288 69.8555 70.6289C69.3261 70.6287 68.8058 70.4915 68.3452 70.2307C67.8845 69.9699 67.4992 69.5944 67.2266 69.1406L61.5059 59.4023L57.9512 53.3477L53.3652 45.5078C52.701 44.3884 52.34 43.1152 52.3177 41.8137C52.2954 40.5122 52.6127 39.2274 53.2383 38.0859C54.1445 36.4863 54.8379 36.0664 54.8379 36.0664L65.0391 53.3203H73.8105C75.4512 53.3203 76.8594 54.582 76.9355 56.2012C76.9513 56.6128 76.8838 57.0234 76.7369 57.4083C76.59 57.7932 76.3668 58.1444 76.0808 58.4408C75.7947 58.7373 75.4517 58.9728 75.0723 59.1334C74.6929 59.2939 74.285 59.3761 73.873 59.375H73.8672Z" fill="black"/>
</svg>
