<svg width="100" height="100" viewBox="0 0 100 100" fill="none" xmlns="http://www.w3.org/2000/svg">
<rect width="100" height="100" fill="#39D7CD"/>
<path d="M16.6667 8.33333C14.4565 8.33333 12.3369 9.2113 10.7741 10.7741C9.2113 12.3369 8.33333 14.4565 8.33333 16.6667V58.3333H16.6667V16.6667H58.3333V8.33333H16.6667ZM33.3333 25C31.1232 25 29.0036 25.878 27.4408 27.4408C25.878 29.0036 25 31.1232 25 33.3333V75H33.3333V33.3333H75V25H33.3333ZM83.3333 50V83.3333H50V50H83.3333ZM83.3333 41.6667H50C47.7899 41.6667 45.6702 42.5446 44.1074 44.1074C42.5446 45.6702 41.6667 47.7899 41.6667 50V83.3333C41.6667 85.5435 42.5446 87.6631 44.1074 89.2259C45.6702 90.7887 47.7899 91.6667 50 91.6667H83.3333C85.5435 91.6667 87.6631 90.7887 89.2259 89.2259C90.7887 87.6631 91.6667 85.5435 91.6667 83.3333V50C91.6667 47.7899 90.7887 45.6702 89.2259 44.1074C87.6631 42.5446 85.5435 41.6667 83.3333 41.6667ZM58.3333 54.1667V79.1667L75 66.6667L58.3333 54.1667Z" fill="black"/>
</svg>
