<svg width="100" height="100" viewBox="0 0 100 100" fill="none" xmlns="http://www.w3.org/2000/svg">
<rect width="100" height="100" fill="#39D7CD"/>
<path d="M68.75 25.3333C68.75 25.3333 40.25 32.4583 53.9167 48.1667C57.9583 52.7917 52.875 56.9583 52.875 56.9583C52.875 56.9583 63.0833 51.75 58.3333 45.0833C53.9167 38.9583 50.5833 35.9167 68.75 25.3333ZM50.125 30.3333C67 17 58.3333 8.33334 58.3333 8.33334C61.8333 22.0833 46 26.25 40.2917 34.8333C36.375 40.6667 42.2083 46.9583 50 54.1667C47.0417 47.0833 36.5833 41 50.125 30.3333V30.3333ZM39.0417 72.7917C26.2083 76.375 46.875 83.75 63.1667 76.7917C61.5833 76.1667 60.0417 75.4167 58.5833 74.5417C52.9167 75.8333 47.0833 76.0833 41.3333 75.2917C35.875 74.625 39.0417 72.7917 39.0417 72.7917V72.7917ZM61.2083 65.7917C53.9167 67.375 46.375 67.75 38.9583 66.875C33.5 66.3333 37.0833 63.6667 37.0833 63.6667C22.9167 68.375 44.9167 73.6667 64.5833 67.9167C63.375 67.4583 62.2083 66.6667 61.2083 65.7917V65.7917ZM75.4583 79.5417C75.4583 79.5417 77.8333 81.5 72.9167 83C63.4167 85.8333 33.625 86.7083 25.375 83.125C22.4167 81.8333 28 80.0417 29.75 79.6667C30.7083 79.4167 31.6667 79.3333 32.625 79.3333C29.3333 77.0833 11.25 83.9167 23.5 85.8333C56.7083 91.25 84.0833 83.3333 75.4583 79.5417ZM64.0417 59.2917C65.25 58.5 66.5417 57.8333 67.875 57.25C67.875 57.25 61.5833 58.3333 55.2917 58.9167C48.625 59.5833 41.9167 59.6667 35.25 59.1667C25.4583 57.875 40.625 54.1667 40.625 54.1667C36.0417 54.1667 31.5417 55.25 27.4583 57.2917C18.9167 61.4583 48.7083 63.3333 64.0417 59.2917V59.2917ZM67.7917 69.375C67.7083 69.5417 67.625 69.6667 67.4583 69.7917C88.3333 64.3333 80.6667 50.4583 70.6667 53.9167C70.125 54.1667 69.6667 54.5 69.375 54.9583C69.9583 54.75 70.5417 54.5833 71.1667 54.4583C76.1667 53.4583 83.3333 61.25 67.7917 69.375V69.375ZM68.3333 88.5833C55.7917 90.75 42.9583 90.9167 30.3333 89.1667C30.3333 89.1667 32.25 90.75 42.0417 91.375C57.0417 92.3333 80.0833 90.8333 80.625 83.75C80.75 83.7917 79.6667 86.4583 68.3333 88.5833V88.5833Z" fill="black"/>
</svg>
