<svg width="30" height="18" viewBox="0 0 30 18" fill="none" xmlns="http://www.w3.org/2000/svg">
<path d="M27.067 0C27.8492 0 28.5335 0.152639 29.1201 0.457918C29.7067 0.763196 30 1.14561 30 1.60517C30 2.01878 29.7486 2.51444 29.2458 3.09217C25.5363 7.22164 22.9385 9.69013 21.4525 10.4976C20.3687 11.0951 19.1508 11.3938 17.7989 11.3938C16.3911 11.3938 15.1816 11.0901 14.1704 10.4829C13.1592 9.87559 12.6536 9.15507 12.6536 8.3213C12.6536 7.48096 13.1676 6.78506 14.1955 6.23359L24.8883 0.531775C25.5475 0.177258 26.2737 0 27.067 0ZM11.8324 10.1825C12.2682 10.6815 12.8631 11.1082 13.6173 11.4627C14.3715 11.8172 15.2123 12.0667 16.1397 12.2111L16.1564 12.9103C16.2011 14.3087 15.4777 15.4477 13.986 16.3275C12.4944 17.2072 10.5475 17.6471 8.14525 17.6471C6.77095 17.6471 5.55307 17.4944 4.49162 17.1891C3.43017 16.8839 2.57821 16.4653 1.93575 15.9336C1.2933 15.4018 0.810056 14.8011 0.486034 14.1314C0.162011 13.4618 0 12.7396 0 11.9649C0.0782123 11.9978 0.307263 12.0962 0.687151 12.2604C1.06704 12.4245 1.41341 12.5706 1.72626 12.6986C2.03911 12.8266 2.36872 12.9464 2.71508 13.058C3.06145 13.1696 3.31844 13.2254 3.48603 13.2254C3.94413 13.2254 4.2514 13.104 4.40782 12.8611C4.68715 12.4278 5.00838 12.0585 5.37151 11.7532C5.73464 11.4479 6.12291 11.1985 6.53631 11.0048C6.94972 10.8111 7.44134 10.6552 8.01117 10.537C8.58101 10.4189 9.15643 10.3351 9.73743 10.2859C10.3184 10.2367 11.0168 10.2022 11.8324 10.1825Z" fill="black"/>
</svg>
